<svg width="1280" height="420" viewBox="0 0 1280 420" fill="none" xmlns="http://www.w3.org/2000/svg" role="img" aria-labelledby="title desc">
  <title id="title">Sisyphus banner</title>
  <desc id="desc">A local issue-to-agent broker that converts GitHub and GitLab issues into Codex-ready work.</desc>
  <defs>
    <linearGradient id="bg" x1="0" y1="0" x2="1280" y2="420" gradientUnits="userSpaceOnUse">
      <stop offset="0" stop-color="#101820"/>
      <stop offset="0.46" stop-color="#17252f"/>
      <stop offset="1" stop-color="#223126"/>
    </linearGradient>
    <linearGradient id="accent" x1="210" y1="72" x2="1028" y2="350" gradientUnits="userSpaceOnUse">
      <stop stop-color="#82D7D0"/>
      <stop offset="0.52" stop-color="#E7D46B"/>
      <stop offset="1" stop-color="#F28F6B"/>
    </linearGradient>
    <filter id="softShadow" x="-20%" y="-20%" width="140%" height="140%" color-interpolation-filters="sRGB">
      <feDropShadow dx="0" dy="18" stdDeviation="18" flood-color="#000000" flood-opacity="0.28"/>
    </filter>
  </defs>

  <rect width="1280" height="420" fill="url(#bg)"/>
  <path d="M0 330C134 266 217 292 331 252C480 199 540 91 710 105C860 117 921 219 1074 218C1161 217 1220 185 1280 150V420H0V330Z" fill="#203A3F" opacity="0.55"/>
  <path d="M0 365C145 317 237 337 364 304C519 264 579 167 726 170C879 173 936 265 1088 269C1168 271 1227 249 1280 219V420H0V365Z" fill="#2F4635" opacity="0.64"/>

  <g opacity="0.18">
    <path d="M128 90H1152" stroke="#F7F3E7" stroke-width="1"/>
    <path d="M128 150H1152" stroke="#F7F3E7" stroke-width="1"/>
    <path d="M128 210H1152" stroke="#F7F3E7" stroke-width="1"/>
    <path d="M128 270H1152" stroke="#F7F3E7" stroke-width="1"/>
    <path d="M128 330H1152" stroke="#F7F3E7" stroke-width="1"/>
    <path d="M180 56V364" stroke="#F7F3E7" stroke-width="1"/>
    <path d="M360 56V364" stroke="#F7F3E7" stroke-width="1"/>
    <path d="M540 56V364" stroke="#F7F3E7" stroke-width="1"/>
    <path d="M720 56V364" stroke="#F7F3E7" stroke-width="1"/>
    <path d="M900 56V364" stroke="#F7F3E7" stroke-width="1"/>
    <path d="M1080 56V364" stroke="#F7F3E7" stroke-width="1"/>
  </g>

  <g filter="url(#softShadow)">
    <rect x="122" y="84" width="256" height="252" rx="18" fill="#12242A" stroke="#5EC7BC" stroke-width="2"/>
    <text x="154" y="132" fill="#DDF7F3" font-family="Inter, ui-sans-serif, system-ui, -apple-system, BlinkMacSystemFont, Segoe UI, sans-serif" font-size="24" font-weight="700">Issue Providers</text>
    <rect x="154" y="166" width="188" height="44" rx="10" fill="#19353D" stroke="#5EC7BC" stroke-opacity="0.55"/>
    <text x="178" y="195" fill="#F7F3E7" font-family="Inter, ui-sans-serif, system-ui, sans-serif" font-size="20" font-weight="650">GitHub</text>
    <rect x="154" y="228" width="188" height="44" rx="10" fill="#19353D" stroke="#5EC7BC" stroke-opacity="0.55"/>
    <text x="178" y="257" fill="#F7F3E7" font-family="Inter, ui-sans-serif, system-ui, sans-serif" font-size="20" font-weight="650">GitLab</text>

    <rect x="512" y="62" width="256" height="296" rx="20" fill="#18272C" stroke="url(#accent)" stroke-width="3"/>
    <text x="568" y="130" fill="#F9F6E8" font-family="Inter, ui-sans-serif, system-ui, sans-serif" font-size="44" font-weight="800">Sisyphus</text>
    <text x="568" y="165" fill="#B8D9D2" font-family="Inter, ui-sans-serif, system-ui, sans-serif" font-size="18" font-weight="600">local daemon</text>
    <rect x="548" y="206" width="184" height="42" rx="21" fill="#253C3F"/>
    <text x="584" y="233" fill="#E7D46B" font-family="Inter, ui-sans-serif, system-ui, sans-serif" font-size="18" font-weight="700">poll</text>
    <text x="638" y="233" fill="#F7F3E7" font-family="Inter, ui-sans-serif, system-ui, sans-serif" font-size="18" font-weight="700">normalize</text>
    <rect x="548" y="266" width="184" height="42" rx="21" fill="#253C3F"/>
    <text x="584" y="293" fill="#F28F6B" font-family="Inter, ui-sans-serif, system-ui, sans-serif" font-size="18" font-weight="700">broker</text>
    <text x="660" y="293" fill="#F7F3E7" font-family="Inter, ui-sans-serif, system-ui, sans-serif" font-size="18" font-weight="700">loop</text>

    <rect x="902" y="84" width="256" height="252" rx="18" fill="#12242A" stroke="#F28F6B" stroke-width="2"/>
    <text x="948" y="132" fill="#FFE7D7" font-family="Inter, ui-sans-serif, system-ui, sans-serif" font-size="24" font-weight="700">Agent Runtime</text>
    <rect x="954" y="172" width="152" height="58" rx="12" fill="#352A25" stroke="#F28F6B" stroke-opacity="0.65"/>
    <text x="994" y="208" fill="#F7F3E7" font-family="Inter, ui-sans-serif, system-ui, sans-serif" font-size="22" font-weight="750">Codex</text>
    <text x="940" y="271" fill="#D5CFC2" font-family="Inter, ui-sans-serif, system-ui, sans-serif" font-size="17" font-weight="600">native sessions stay native</text>
  </g>

  <path d="M380 210H502" stroke="#82D7D0" stroke-width="5" stroke-linecap="round"/>
  <path d="M486 193L506 210L486 227" stroke="#82D7D0" stroke-width="5" stroke-linecap="round" stroke-linejoin="round"/>
  <path d="M778 210H900" stroke="#F28F6B" stroke-width="5" stroke-linecap="round"/>
  <path d="M884 193L904 210L884 227" stroke="#F28F6B" stroke-width="5" stroke-linecap="round" stroke-linejoin="round"/>

  <text x="128" y="384" fill="#DCE9E5" font-family="Inter, ui-sans-serif, system-ui, sans-serif" font-size="20" font-weight="650">Issue-triggered agent work without a central backend.</text>
</svg>
